<svg xmlns="http://www.w3.org/2000/svg" width="22" height="22" x="0" y="0" enable-background="new 0 0 90 109" version="1.1" viewBox="-1 -1 22.489 22.404" xml:space="preserve"><path fill="#ececec" stroke-linecap="round" stroke-linejoin="round" stroke-width=".709" d="m10.244444 2.024056c-2.25823 0-4.088888 1.830657-4.088888 4.088889l0 2.044444-1.022222 0A2.044445 2.044445 0 0 0 3.088889 10.201834l0 6.133334a2.044445 2.044445 0 0 0 2.044444 2.044444l10.222221 0A2.044445 2.044445 0 0 0 17.4 16.335168l0-6.133334A2.044445 2.044445 0 0 0 15.355555 8.15739l-1.022222 0 0-2.044444c0-2.258232-1.830658-4.088889-4.088889-4.088889zm0 2.044444c1.129115 0 2.044445.915329 2.044445 2.044444 0 .481715-.103463.860686-.239584 1.132031-.13612.271346-.438121.633213-.782638.912413-.336802.272947-1.022223.62092-1.022223.62092 0 0 .3124-.379414.439237-.670834-.144178.032466-.29145.049831-.439237.049913-1.129116.000631-2.044444-.915329-2.044444-2.044444 0-1.129116.915328-2.044445 2.044444-2.044444zm0 6.133333a3.066667 3.066667 0 0 1 3.066667 3.066667 3.066667 3.066667 0 0 1 -3.066667 3.066667 3.066667 3.066667 0 0 1 -3.066666-3.066667 3.066667 3.066667 0 0 1 3.066666-3.066667zm-2.044444 2.044445l0 2.044445 4.088889 0 0-2.044445-4.088889 0z"/><path cx="11.267" cy="14.798" fill="#fff" rx="2.556" ry="2.556"/><path cx="11.267" cy="14.287" fill="#fff" rx="3.067" ry="3.067"/><path cx="11.267" cy="14.798" fill="#fff" rx="2.556" ry="2.556"/></svg>