<svg xmlns="http://www.w3.org/2000/svg" viewBox="0 0 22 22"><path d="M 16.5 -11 A 5.5 5.5 0 0 1 11 -5.5" transform="matrix(1 0 0 -1 0 0)" style="stroke-dasharray:none;stroke-opacity:1;fill:none;opacity:1;stroke-miterlimit:4;stroke:#79d073;stroke-linecap:butt;stroke-linejoin:miter;stroke-width:1;stroke-dashoffset:0"/><path d="M -5.5 11 A 5.5 5.5 0 0 1 -11 16.5" transform="matrix(-1 0 0 1 0 0)" style="stroke-dasharray:none;stroke-opacity:1;fill:none;opacity:1;stroke-miterlimit:4;stroke:#79d073;stroke-linecap:butt;stroke-linejoin:miter;stroke-width:1;stroke-dashoffset:0"/><path d="m 11 5.5 5 0" style="stroke-dasharray:none;stroke-opacity:1;fill:none;stroke-miterlimit:4;stroke:#79d073;stroke-linecap:butt;stroke-linejoin:miter;stroke-width:1"/><path d="m 6 16.5 5 0" style="stroke-dasharray:none;stroke-opacity:1;fill:none;stroke-miterlimit:4;stroke:#79d073;stroke-linecap:butt;stroke-linejoin:miter;stroke-width:1"/><rect width="7" height="7" x="2.5" y="2.5" style="stroke-dasharray:none;stroke-opacity:1;fill:#fff;opacity:1;stroke-miterlimit:4;fill-opacity:1;stroke:#888;fill-rule:nonzero;stroke-linecap:butt;stroke-linejoin:miter;stroke-width:1;stroke-dashoffset:0"/><path d="m 14.5 12 -3 3 1.414 0 l 1.586 -1.586 1.586 1.586 1.414 0 z" style="visibility:visible;shape-rendering:auto;color-interpolation-filters:linearRGB;fill:#888;opacity:1;image-rendering:auto;fill-opacity:1;text-rendering:auto;stroke:none;display:inline;color:#000;fill-rule:nonzero;color-rendering:auto;color-interpolation:sRGB"/><rect width="1" height="6" x="14" y="13" style="fill:#888;opacity:1;fill-opacity:1;stroke:none;fill-rule:nonzero"/><path d="m 18.5 20 -3 -3 1.414 0 l 1.586 1.586 1.586 -1.586 1.414 0 z" style="visibility:visible;shape-rendering:auto;color-interpolation-filters:linearRGB;fill:#888;opacity:1;image-rendering:auto;fill-opacity:1;text-rendering:auto;stroke:none;display:inline;color:#000;fill-rule:nonzero;color-rendering:auto;color-interpolation:sRGB"/><rect width="1" height="6" x="18" y="-19" transform="matrix(1 0 0 -1 0 0)" style="fill:#888;opacity:1;fill-opacity:1;stroke:none;fill-rule:nonzero"/></svg>