<svg xmlns="http://www.w3.org/2000/svg" viewBox="0 0 22 22"><rect style="fill:#3daee9;opacity:1;fill-opacity:1;stroke:none;fill-rule:nonzero" width="1" height="11" x="4" y="5.5"/><rect style="fill:#3daee9;opacity:1;fill-opacity:1;stroke:none;fill-rule:nonzero" width="1" height="11" x="4" y="-16.5" transform="matrix(0 1 -1 0 0 0)"/><circle style="stroke-dasharray:none;stroke-opacity:1;fill:none;opacity:1;stroke-miterlimit:4;stroke:#313131;stroke-linecap:butt;stroke-linejoin:round;stroke-width:1;stroke-dashoffset:0" cx="4" cy="4" r="1.5"/><rect style="fill:#3daee9;opacity:1;fill-opacity:1;stroke:none;fill-rule:nonzero" width="1" height="6.5" x="17" y="5.5"/><rect style="stroke-dasharray:none;stroke-opacity:1;fill:none;opacity:1;stroke-miterlimit:4;stroke:#313131;stroke-linecap:butt;stroke-linejoin:miter;stroke-width:1;stroke-dashoffset:0" width="3" height="3" x="16.5" y="2.5"/><rect style="fill:#3daee9;opacity:1;fill-opacity:1;stroke:none;fill-rule:nonzero" width="1" height="6.5" x="17" y="-12" transform="matrix(0 1 -1 0 0 0)"/><rect style="stroke-dasharray:none;stroke-opacity:1;fill:none;opacity:1;stroke-miterlimit:4;stroke:#313131;stroke-linecap:butt;stroke-linejoin:miter;stroke-width:1;stroke-dashoffset:0" width="3" height="3" x="2.5" y="16.5"/><path style="fill:#dc322f;fill-opacity:1" d="m 21.743 19.621 -2.121 -2.121 2.121 -2.121 -2.121 -2.121 -2.121 2.121 -2.121 -2.121 -2.121 2.121 2.121 2.121 -2.121 2.121 2.121 2.121 2.121 -2.121 l 2.121 2.121 z"/></svg>