<svg xmlns="http://www.w3.org/2000/svg" viewBox="0 0 22 22"><rect width="10" height="8" x="4" y="10" rx=".5" style="fill:#268bd2;fill-opacity:1;stroke:none;display:inline;color:#000"/><path d="m 18 8.5 a 4.5 4.5 0 0 1 -9 0 4.5 4.5 0 1 1 9 0 z" style="fill:#dc322f;fill-opacity:1;stroke:none;display:inline;color:#000"/><path d="m 1 1 0 4 2 0 0 -2 2 0 0 -2 m 12 0 0 2 2 0 0 2 2 0 0 -4 z m -16 16 0 4 4 0 0 -2 -2 0 0 -2 z m 18 0 0 2 -2 0 0 2 4 0 0 -4 z" isolation="auto" mix-blend-mode="normal" solid-color="#000000" solid-opacity="1" white-space="normal" style="visibility:visible;shape-rendering:auto;color-interpolation-filters:linearRGB;fill:#000;opacity:.5;image-rendering:auto;fill-opacity:1;stroke:none;display:inline;color:#000;fill-rule:nonzero;color-rendering:auto;color-interpolation:sRGB"/></svg>