<svg xmlns="http://www.w3.org/2000/svg" viewBox="0 0 22 22"><rect width="17" height="17" x="2.5" y="2.5" rx="1" style="stroke-opacity:1;fill:#268bd2;opacity:1;fill-opacity:1;stroke:#313131;fill-rule:nonzero;stroke-width:1"/><rect width="3.771" height="3.771" x="-1.886" y="6.128" transform="matrix(0.70711 -0.70711 0.70711 0.70711 0 0)" style="fill:#fff;opacity:1;fill-opacity:1;stroke:none;fill-rule:nonzero"/><rect width="3.771" height="3.771" x="1.886" y="9.899" transform="matrix(0.70711 -0.70711 0.70711 0.70711 0 0)" style="fill:#fff;opacity:1;fill-opacity:1;stroke:none;fill-rule:nonzero"/><rect width="3.771" height="3.771" x="5.657" y="13.671" transform="matrix(0.70711 -0.70711 0.70711 0.70711 0 0)" style="fill:#fff;opacity:1;fill-opacity:1;stroke:none;fill-rule:nonzero"/><rect width="3.771" height="3.771" x="1.886" y="17.442" transform="matrix(0.70711 -0.70711 0.70711 0.70711 0 0)" style="fill:#fff;opacity:1;fill-opacity:1;stroke:none;fill-rule:nonzero"/><rect width="3.771" height="3.771" x="-1.886" y="13.671" transform="matrix(0.70711 -0.70711 0.70711 0.70711 0 0)" style="fill:#fff;opacity:1;fill-opacity:1;stroke:none;fill-rule:nonzero"/><rect width="3.771" height="3.771" x="-5.657" y="9.899" transform="matrix(0.70711 -0.70711 0.70711 0.70711 0 0)" style="fill:#fff;opacity:1;fill-opacity:1;stroke:none;fill-rule:nonzero"/><rect width="3.771" height="3.771" x="-9.428" y="13.671" transform="matrix(0.70711 -0.70711 0.70711 0.70711 0 0)" style="fill:#fff;opacity:1;fill-opacity:1;stroke:none;fill-rule:nonzero"/><rect width="3.771" height="3.771" x="-5.657" y="17.442" transform="matrix(0.70711 -0.70711 0.70711 0.70711 0 0)" style="fill:#fff;opacity:1;fill-opacity:1;stroke:none;fill-rule:nonzero"/><rect width="3.771" height="3.771" x="-1.886" y="21.21" transform="matrix(0.70711 -0.70711 0.70711 0.70711 0 0)" style="fill:#fff;opacity:1;fill-opacity:1;stroke:none;fill-rule:nonzero"/></svg>