<svg xmlns="http://www.w3.org/2000/svg" viewBox="0 0 22 22"><path d="m 19.352 2.5 c -9.261 0 -16.852 7.591 -16.852 16.852 l 0 0.648 6.02 0 a 11 11 0 0 1 -0.017578 -0.5 11 11 0 0 1 11 -11 11 11 0 0 1 0.5 0.02539 l 0 -6.03 l -0.648 0 z" style="visibility:visible;shape-rendering:auto;color-interpolation-filters:linearRGB;fill:#50b34a;opacity:.4;image-rendering:auto;fill-opacity:1;text-rendering:auto;stroke:none;display:inline;color:#000;fill-rule:nonzero;color-rendering:auto;color-interpolation:sRGB"/><path d="m -2.5 -19.5 a 17 16.999998 0 0 1 -17 16.999998" transform="matrix(-1 0 0 -1 0 0)" style="stroke-dasharray:none;stroke-opacity:1;fill:none;opacity:1;stroke-miterlimit:4;stroke:#50b34a;stroke-linecap:square;stroke-linejoin:round;stroke-width:1;stroke-dashoffset:0"/><rect width="3" height="3" x="11.5" y="2.5" style="stroke-dasharray:none;stroke-opacity:1;fill:#fff;opacity:1;stroke-miterlimit:4;fill-opacity:1;stroke:#313131;fill-rule:nonzero;stroke-linecap:butt;stroke-linejoin:miter;stroke-width:1;stroke-dashoffset:0"/><rect width="3" height="3" x="2.5" y="11.5" style="stroke-dasharray:none;stroke-opacity:1;fill:#fff;opacity:1;stroke-miterlimit:4;fill-opacity:1;stroke:#313131;fill-rule:nonzero;stroke-linecap:butt;stroke-linejoin:miter;stroke-width:1;stroke-dashoffset:0"/><path d="m -8.499998 -19.5 a 11 11 0 0 1 -11 11" transform="matrix(-1 0 0 -1 0 0)" style="stroke-dasharray:none;stroke-opacity:1;fill:none;opacity:1;stroke-miterlimit:4;stroke:#50b34a;stroke-linecap:square;stroke-linejoin:round;stroke-width:1;stroke-dashoffset:0"/><rect width="3" height="3" x="7.5" y="14.5" style="stroke-dasharray:none;stroke-opacity:1;fill:#fff;opacity:1;stroke-miterlimit:4;fill-opacity:1;stroke:#313131;fill-rule:nonzero;stroke-linecap:butt;stroke-linejoin:miter;stroke-width:1;stroke-dashoffset:0"/><rect width="3" height="3" x="14.5" y="7.5" style="stroke-dasharray:none;stroke-opacity:1;fill:#fff;opacity:1;stroke-miterlimit:4;fill-opacity:1;stroke:#313131;fill-rule:nonzero;stroke-linecap:butt;stroke-linejoin:miter;stroke-width:1;stroke-dashoffset:0"/></svg>