<svg xmlns="http://www.w3.org/2000/svg" viewBox="0 0 22 22" style="enable-background:new"><rect style="stroke-dasharray:none;stroke-opacity:1;fill:#ffde85;opacity:1;stroke-miterlimit:4;fill-opacity:1;stroke:#af8566;fill-rule:nonzero;stroke-linecap:square;stroke-linejoin:miter;stroke-width:1;stroke-dashoffset:4" width="19" height="7" x="-5.473" y="11.526" transform="matrix(0.86603 -0.5 0.5 0.86603 0 0)"/><rect style="fill:#4d4d4d;opacity:1;fill-opacity:1;stroke:none;fill-rule:nonzero" width="1" height="2" x="-1.973" y="11.03" transform="matrix(0.86603 -0.5 0.5 0.86603 0 0)"/><rect style="fill:#4d4d4d;opacity:1;fill-opacity:1;stroke:none;fill-rule:nonzero" width="1" height="2" x="7.03" y="11.03" transform="matrix(0.86603 -0.5 0.5 0.86603 0 0)"/><rect style="fill:#4d4d4d;opacity:1;fill-opacity:1;stroke:none;fill-rule:nonzero" width="1" height="4" x="10.03" y="11.03" transform="matrix(0.86603 -0.5 0.5 0.86603 0 0)"/><rect style="fill:#4d4d4d;opacity:1;fill-opacity:1;stroke:none;fill-rule:nonzero" width="1" height="4" x="1.027" y="11.03" transform="matrix(0.86603 -0.5 0.5 0.86603 0 0)"/><rect style="fill:#4d4d4d;opacity:1;fill-opacity:1;stroke:none;fill-rule:nonzero" width="1" height="2" x="4.03" y="11.03" transform="matrix(0.86603 -0.5 0.5 0.86603 0 0)"/></svg>