<svg xmlns="http://www.w3.org/2000/svg" viewBox="0 0 22 22"><rect width="16" height="18" x="3" y="3" rx="2" style="fill:#e5e1c7;opacity:1;fill-opacity:1;stroke:none"/><rect width="14" height="16" x="4" y="4" rx="1" style="fill:#eae7d1;opacity:1;fill-opacity:1;stroke:none"/><rect width="1" height="3" x="5" y="2" rx=".5" style="fill:#999;opacity:1;fill-opacity:1;stroke:none"/><rect width="1" height="3" x="7" y="2" rx=".5" style="fill:#999;opacity:1;fill-opacity:1;stroke:none"/><rect width="1" height="3" x="9" y="2" rx=".5" style="fill:#999;opacity:1;fill-opacity:1;stroke:none"/><rect width="1" height="3" x="12" y="2" rx=".5" style="fill:#999;opacity:1;fill-opacity:1;stroke:none"/><rect width="1" height="3" x="14" y="2" rx=".5" style="fill:#999;opacity:1;fill-opacity:1;stroke:none"/><rect width="1" height="3" x="16" y="2" rx=".5" style="fill:#999;opacity:1;fill-opacity:1;stroke:none"/><rect width="12" height="1" x="5" y="7" style="fill:#999;opacity:1;fill-opacity:1;stroke:none"/><rect width="12" height="1" x="5" y="9" style="fill:#999;opacity:1;fill-opacity:1;stroke:none"/><rect width="8" height="1" x="5" y="11" style="fill:#999;opacity:1;fill-opacity:1;stroke:none"/><rect width="8" height="1" x="5" y="13" style="fill:#999;opacity:1;fill-opacity:1;stroke:none"/><rect width="12" height="1" x="5" y="15" style="fill:#999;opacity:1;fill-opacity:1;stroke:none"/><rect width="12" height="1" x="5" y="17" style="fill:#999;opacity:1;fill-opacity:1;stroke:none"/></svg>