<svg xmlns="http://www.w3.org/2000/svg" viewBox="0 0 22 22"><rect width="2" height="20" x="10" y="1" rx=".5" style="fill:#76b7ca;opacity:1;fill-opacity:1;stroke:none;fill-rule:nonzero"/><g transform="matrix(0.5 0 0 0.5 -1 -0.5)"><rect width="3" height="7" x="19.879" y="-22.797" rx="1" transform="matrix(0.5 0.86603 -0.86603 0.5 0 0)" style="fill:#76b7ca;opacity:1;fill-opacity:1;stroke:none;fill-rule:nonzero"/><rect width="3" height="7" x="-4.121" y="18.772" rx="1" transform="matrix(-0.5 0.86603 0.86603 0.5 0 0)" style="fill:#76b7ca;opacity:1;fill-opacity:1;stroke:none;fill-rule:nonzero"/></g><g transform="matrix(0.5 0 0 -0.5 -1 22.5)"><rect width="3" height="7" x="19.879" y="-22.797" rx="1" transform="matrix(0.5 0.86603 -0.86603 0.5 0 0)" style="fill:#76b7ca;opacity:1;fill-opacity:1;stroke:none;fill-rule:nonzero"/><rect width="3" height="7" x="-4.121" y="18.772" rx="1" transform="matrix(-0.5 0.86603 0.86603 0.5 0 0)" style="fill:#76b7ca;opacity:1;fill-opacity:1;stroke:none;fill-rule:nonzero"/></g><rect width="2" height="20" x="14.03" y="-14.03" rx=".5" transform="matrix(0.5 0.86603 -0.86603 0.5 0 0)" style="fill:#76b7ca;opacity:1;fill-opacity:1;stroke:none;fill-rule:nonzero"/><g transform="matrix(0.25 0.43301 -0.43301 0.25 14.959 -5.142)"><rect width="3" height="7" x="19.879" y="-22.797" rx="1" transform="matrix(0.5 0.86603 -0.86603 0.5 0 0)" style="fill:#76b7ca;opacity:1;fill-opacity:1;stroke:none;fill-rule:nonzero"/><rect width="3" height="7" x="-4.121" y="18.772" rx="1" transform="matrix(-0.5 0.86603 0.86603 0.5 0 0)" style="fill:#76b7ca;opacity:1;fill-opacity:1;stroke:none;fill-rule:nonzero"/></g><g transform="matrix(0.25 0.43301 0.43301 -0.25 -4.96 6.358)"><rect width="3" height="7" x="19.879" y="-22.797" rx="1" transform="matrix(0.5 0.86603 -0.86603 0.5 0 0)" style="fill:#76b7ca;opacity:1;fill-opacity:1;stroke:none;fill-rule:nonzero"/><rect width="3" height="7" x="-4.121" y="18.772" rx="1" transform="matrix(-0.5 0.86603 0.86603 0.5 0 0)" style="fill:#76b7ca;opacity:1;fill-opacity:1;stroke:none;fill-rule:nonzero"/></g><rect width="2" height="20" x="3.03" y="-25.03" rx=".5" transform="matrix(-0.5 0.86603 -0.86603 -0.5 0 0)" style="fill:#76b7ca;opacity:1;fill-opacity:1;stroke:none;fill-rule:nonzero"/><g transform="matrix(-0.25 0.43301 -0.43301 -0.25 26.959 6.358)"><rect width="3" height="7" x="19.879" y="-22.797" rx="1" transform="matrix(0.5 0.86603 -0.86603 0.5 0 0)" style="fill:#76b7ca;opacity:1;fill-opacity:1;stroke:none;fill-rule:nonzero"/><rect width="3" height="7" x="-4.121" y="18.772" rx="1" transform="matrix(-0.5 0.86603 0.86603 0.5 0 0)" style="fill:#76b7ca;opacity:1;fill-opacity:1;stroke:none;fill-rule:nonzero"/></g><g transform="matrix(-0.25 0.43301 0.43301 0.25 7.04 -5.142)"><rect width="3" height="7" x="19.879" y="-22.797" rx="1" transform="matrix(0.5 0.86603 -0.86603 0.5 0 0)" style="fill:#76b7ca;opacity:1;fill-opacity:1;stroke:none;fill-rule:nonzero"/><rect width="3" height="7" x="-4.121" y="18.772" rx="1" transform="matrix(-0.5 0.86603 0.86603 0.5 0 0)" style="fill:#76b7ca;opacity:1;fill-opacity:1;stroke:none;fill-rule:nonzero"/></g></svg>