<svg xmlns="http://www.w3.org/2000/svg" viewBox="0 0 22 22"><rect width="4" height="18" x="-12" y="-20" rx="1" transform="matrix(0 -1 -1 0 0 0)" style="fill:#839496;fill-opacity:1"/><path style="fill:#073642;fill-opacity:1" d="m 4 16.5 0 2.5 2 0 0 -2.5 z m 12 0 0 2.5 2 0 0 -2.5 z"/><rect width="4" height="18" x="-17" y="-20" rx="1" transform="matrix(0 -1 -1 0 0 0)" style="fill:#839496;fill-opacity:1"/><rect width="4" height="18" x="-7" y="-20" rx="1" transform="matrix(0 -1 -1 0 0 0)" style="fill:#839496;fill-opacity:1"/><path style="fill:#fff;opacity:.4;fill-opacity:1" d="m 15 3 0 4 2 0 0 -4 -2 0 z m 0 5 0 4 2 0 0 -4 -2 0 z m 0 5 0 4 2 0 0 -4 -2 0 z"/><circle cx="5" cy="15" r="1" style="fill:#6bdd33;fill-opacity:1"/></svg>