<svg xmlns="http://www.w3.org/2000/svg" viewBox="0 0 22 22"><rect width="14" height="10" x="3" y="6" rx=".8" style="fill:#073642;fill-opacity:1;stroke:none"/><rect width="11.5" height="7.5" x="4.25" y="7.25" style="fill:#93a1a1;fill-opacity:1;stroke:none"/><rect width=".75" height=".75" x="16" y="7" rx=".15" style="fill:#586e75;fill-opacity:1;stroke:none"/><rect width="2" height="10" x="14" y="6" style="fill:#fdf6e3;fill-opacity:.217;stroke:none"/><path d="m 19 15.25 -1 -1.5 0 -6.514 c 0 0 0 -0.486 0.5 -0.486 0.5 0 0.5 0.486 0.5 0.486 l 0 6.514" style="fill:#073642;fill-opacity:1;stroke:none"/><rect width="2" height=".5" x="-13.75" y="18.5" transform="matrix(0,-1,1,0,0,0)" style="fill:#586e75;fill-opacity:1;stroke:none"/><rect width=".75" height=".75" x="16" y="8.5" rx=".15" style="fill:#586e75;fill-opacity:1;stroke:none"/><rect width=".75" height=".75" x="3.25" y="7" rx=".15" style="fill:#586e75;fill-opacity:1;stroke:none"/><rect width=".75" height=".75" x="3.25" y="8.5" rx=".15" style="fill:#586e75;fill-opacity:1;stroke:none"/></svg>