<svg xmlns="http://www.w3.org/2000/svg" xmlns:svg="http://www.w3.org/2000/svg" id="svg2" version="1.1" viewBox="0 0 22 22"><metadata id="metadata16"/><path style="fill:#efc743;fill-opacity:1" id="path4" d="m 4 0 c -0.473 0 -1 0.527 -1 1 l 0 20 c 0 0.445 0.555 1 1 1 l 14 0 c 0.445 0 0.992 -0.555 1 -1 l 0 -15 -6 -6 z"/><path style="fill:#000;fill-opacity:.196" id="path6" d="m 14 6 5 5 0 -5 z"/><path style="fill:#fff;fill-opacity:.392" id="path8" d="m 13 0 6 6 -5 0 c -0.445 0 -1 -0.555 -1 -1 z"/><path style="fill:#fff;fill-opacity:1" id="path4849" d="M 10.674992,16.993094 C 9.9026235,16.926623 9.1356258,16.707892 8.4727169,16.365054 7.8711263,16.053932 7.4117437,15.66666 7.1181346,15.2231 6.616423,14.146597 6.529056,13.730962 6.0330786,12.33367 6.0173521,12.294486 5.5862307,10.511007 5.5906624,10.503416 c 0.2568298,0.102937 0.4506555,0.185969 0.7259945,0.300048 L 6.4463506,10.67709 c 0.1819436,-0.177287 0.3703169,-0.314437 0.6406693,-0.466456 l 0.082485,-0.04638 C 7.3224027,9.8300639 7.4999678,9.4966881 7.6632636,9.1734447 c 0.2844255,0.2136639 0.5045306,0.3871334 0.8020423,0.6180892 0.00686,0.00526 0.09197,-0.010624 0.2325367,-0.043368 C 9.2890464,9.6104118 9.603822,9.5639337 9.9998609,9.555912 l 0.2139911,-0.00433 c 0.26076,-0.2514169 0.523136,-0.5012367 0.784871,-0.7515885 0.277571,0.2636451 0.487494,0.466154 0.784871,0.7515837 l 0.213988,0.00433 c 0.392826,0.00796 0.705488,0.053495 1.271808,0.1852364 0.120375,0.028014 0.227068,0.052529 0.237099,0.054512 0.308524,-0.211831 0.498371,-0.3680291 0.833534,-0.6263432 0.177639,0.3474555 0.304612,0.6164189 0.487635,0.9943486 l 0.05983,0.03323 c 0.273634,0.151934 0.482337,0.302962 0.663825,0.480379 l 0.129799,0.126884 c 0.257702,-0.10757 0.503454,-0.209467 0.72826,-0.303 -0.08547,0.349407 -0.150152,0.628105 -0.217365,0.911507 -0.110881,0.468954 -0.212017,0.879312 -0.224745,0.911903 -0.335417,0.949516 -0.6044,1.712493 -0.971683,2.707062 -0.348883,0.647275 -1.043029,1.195228 -1.984408,1.566484 -0.479679,0.189169 -0.981614,0.314589 -1.510905,0.377534 -0.186012,0.02214 -0.655728,0.03207 -0.825282,0.01747 z M 9.9544639,13.790697 c 0.5692011,-0.321545 1.0392321,-0.584629 1.0445191,-0.584629 0.734046,0.407089 1.30753,0.733454 2.084783,1.169872 0.416225,-0.09651 0.632208,-0.173044 1.136967,-0.323557 0.318854,-0.351057 0.589096,-0.799219 0.798466,-1.107531 -0.03002,-0.08842 -0.126322,-0.275263 -0.192769,-0.374084 -0.38092,-0.566504 -1.131796,-1.05406 -2.051628,-1.332157 -0.903487,-0.273152 -1.931841,-0.329197 -2.9023094,-0.15817 -1.2670528,0.223296 -2.3299928,0.83479 -2.7649488,1.590641 -0.053921,0.0937 -0.1170668,0.228491 -0.1348202,0.287788 0.2114711,0.378234 0.5643804,0.782958 0.8034804,1.092887 0.3741993,0.116637 0.7535945,0.220761 1.1296482,0.328185 0.4164047,-0.231992 0.7092399,-0.398198 1.0486117,-0.589245 z"/></svg>