<svg xmlns="http://www.w3.org/2000/svg" xmlns:svg="http://www.w3.org/2000/svg" id="svg2" version="1.1" viewBox="0 0 22 22"><metadata id="metadata16"/><path style="fill:#f68712;fill-opacity:1" id="path4" d="m 4 0 c -0.473 0 -1 0.527 -1 1 l 0 20 c 0 0.445 0.555 1 1 1 l 14 0 c 0.445 0 0.992 -0.555 1 -1 l 0 -15 -6 -6 z"/><path style="fill:#000;fill-opacity:.196" id="path6" d="m 14 6 5 5 0 -5 z"/><path style="fill:#fff;fill-opacity:.392" id="path8" d="m 13 0 6 6 -5 0 c -0.445 0 -1 -0.555 -1 -1 z"/><g id="g3075" transform="matrix(0.00719258,0,0,-0.0071927,6.4999983,20.265205)"><path id="path38" d="m 1094.86,1079.59 156.43,-625.629 0,312.812 -156.43,312.817 m 0,0 156.43,625.64 0,-312.81 -156.43,-312.83 m -938.454,0 L 0,1705.23 0,1392.42 156.406,1079.59 m 0,0 L 0,453.961 0,766.773 156.406,1079.59 M 625.645,610.371 0,453.961 l 312.812,0 312.833,156.41 m 0,0 625.645,-156.41 -312.833,0 -312.812,156.41 m 0,938.449 625.645,156.41 -312.833,0 -312.812,-156.41 m 0,0 L 0,1705.23 l 312.812,0 312.833,-156.41 M 0,453.961 156.406,1079.59 625.645,610.371 0,453.961 m 1251.29,0 -625.645,156.41 469.215,469.219 156.43,-625.629 m 0,1251.269 -156.43,-625.64 -469.215,469.23 625.645,156.41 M 0,1705.23 625.645,1548.82 156.406,1079.59 0,1705.23 M 625.645,1548.82 156.406,1079.59 625.645,610.371 1094.86,1079.59 625.645,1548.82" style="fill:#fff;fill-opacity:1;fill-rule:nonzero;stroke:none"/></g></svg>