<svg xmlns="http://www.w3.org/2000/svg" xmlns:svg="http://www.w3.org/2000/svg" xmlns:xlink="http://www.w3.org/1999/xlink" id="svg2" width="22" height="22" version="1.1" viewBox="0 0 22 22"><metadata id="metadata20"/><defs id="defs18"><linearGradient id="linearGradient3844"><stop id="stop3846" offset="0" style="stop-color:#000;stop-opacity:.39215687"/><stop id="stop3848" offset="1" style="stop-color:#000;stop-opacity:0"/></linearGradient><radialGradient id="radialGradient3114" cx="24.076" cy="41.383" r="21.076" fx="24.076" fy="41.383" gradientTransform="matrix(1,0,0,0.11307633,0,36.703704)" gradientUnits="userSpaceOnUse" xlink:href="#linearGradient3844"/></defs><g id="layer3" transform="matrix(0.64705882,0,0,1,-4.5294117,-22)"><path style="fill:url(#radialGradient3114);fill-opacity:1;stroke:none" id="path3842" d="m 45.151344,41.38316 c 0,1.316182 -9.4359,2.383159 -21.075672,2.383159 C 12.4359,43.766319 3,42.699342 3,41.38316 3,40.066977 12.4359,39 24.075672,39 c 11.639772,0 21.075672,1.066977 21.075672,2.38316 z" transform="matrix(0.80661722,0,0,1.0490275,4.5801483,-1.9120725)"/></g><path id="path3801" d="m 11.529412,5.3243273 -2.6470591,1.6216223 1.5882351,0 z" style="fill:none;stroke:none"/><rect id="rect3054" width="14" height="16" x="4" y="5" rx=".509" ry=".493" style="fill:#8f98a8;fill-opacity:1;stroke:none"/><path style="fill:#8f98a8;fill-opacity:1;stroke:none" id="path3861" d="m 8.3529411,1.000001 c -0.5294117,0 -1.0588235,0.5405408 -1.0588235,1.0810816 l 0,2.1621631 0,1.0810816 1.0588235,0 L 9,4.0810816 9,3 C 9,2.4594593 9.4705883,2 10,2 l 2,0 c 0.529412,0 1,0.4594593 1,1 l 0,1.0810816 0.117647,1.2432457 1.588235,0 0,-1.0810816 0,-2.1621631 c 0,-0.5405408 -0.529412,-1.0810816 -1.058823,-1.0810816 z"/><path id="path3824" d="M 2,7 C 2,5.8 3.0588235,4 3.5882353,4 L 18.411765,4 C 18.941176,4 20,5.8 20,7 z" style="fill:#b0b6c5;fill-opacity:1;stroke:none"/><rect id="rect3826" width="2" height="10" x="6" y="9" rx=".5" ry=".5" style="fill:#687385;fill-opacity:1;stroke:none"/><rect style="fill:#687385;fill-opacity:1;stroke:none" id="rect3110" width="2" height="10" x="10" y="9" rx=".5" ry=".5"/><rect style="fill:#687385;fill-opacity:1;stroke:none" id="rect3112" width="2" height="10" x="14" y="9" rx=".5" ry=".5"/><rect id="rect3863" width="14" height="3" x="4" y="7" style="opacity:.1;fill:#000;fill-opacity:1;stroke:none"/></svg>