<svg xmlns="http://www.w3.org/2000/svg" xmlns:svg="http://www.w3.org/2000/svg" id="svg2" width="22" height="22" version="1.1" viewBox="0 0 22 22"><metadata id="metadata28"/><g id="g4" transform="matrix(3.1673516,-1.6948403,1.550374,2.7002138,0.3484159,5.9800657)"><path style="opacity:1;fill:#54a6e0;fill-opacity:1" id="path6" d="M 0.282,0.564 C 0,0.564 0,0.564 0,0.846 L 0,3.668 C 0,3.95 0,3.95 0.282,3.95 l 3.951,0 c 0.282,0 0.282,0 0.282,-0.282 0,-0.908 0,-2.297 0,-2.822 0,-0.282 0,-0.282 -0.282,-0.282 z"/><g style="fill-opacity:.1" id="g8"><path style="fill:#fff;fill-opacity:.12900002" id="path10" d="M 0.123,0.566 C 0.004,0.579 0,0.636 0,0.848 L 2.258,2.257 4.516,0.848 c 0,-0.282 0,-0.282 -0.282,-0.282 l -3.951,0 c -0.071,0 -0.119,-0.004 -0.159,0 z"/><path style="fill:#000;fill-opacity:.14100001" id="path12" d="m 4.516,0.847 -2.258,1.411 2.258,1.411 0,-2.822 z"/></g></g><path style="opacity:1;fill:#e0d856;fill-opacity:1;stroke:none" id="path14" d="m 22,14 c 0,0 -0.916667,4.416667 -1.375,6.625 C 20.340044,21.997971 19.76175,22 19,22 19,22 8.3333333,22 3,22 2.23825,22 1.6611068,22.0035 1.3749998,20.625 0.91666151,18.416668 0,14 0,14"/></svg>