<svg xmlns="http://www.w3.org/2000/svg" xmlns:svg="http://www.w3.org/2000/svg" id="svg2" width="22" height="22" version="1.1" viewBox="0 0 22 22"><metadata id="metadata22"/><rect id="rect3804" width="4" height="4" x="9" y="13" style="fill:#42a5f5;fill-opacity:1;stroke:none"/><rect style="fill:#42a5f5;fill-opacity:1;stroke:none" id="rect3802" width="4" height="4" x="9" y="5"/><rect id="rect2998" width="22" height="6" x="0" y="8" rx="1" ry="1" style="fill:#42a5f5;fill-opacity:1;stroke:none"/><rect style="fill:#486cd7;fill-opacity:1;stroke:none" id="rect2992" width="22" height="6" x="0" y="0" rx="1" ry="1"/><rect style="fill:#f9f9f9;fill-opacity:1;stroke:none" id="rect3806" width="11" height="2" x="1" y="2"/><path style="fill:#f9f9f9;fill-opacity:1;stroke:none" id="path3808" d="m -5,17 a 2,2 0 1 1 -4,0 2,2 0 1 1 4,0 z" transform="matrix(0.5,0,0,0.5,18.5,-5.5)"/><path id="path3810" d="m -5,17 a 2,2 0 1 1 -4,0 2,2 0 1 1 4,0 z" transform="matrix(0.5,0,0,0.5,22.5,-5.5)" style="fill:#f9f9f9;fill-opacity:1;stroke:none"/><rect style="fill:#09b69e;fill-opacity:1;stroke:none" id="rect3000" width="22" height="6" x="0" y="16" rx="1" ry="1"/><rect id="rect3812" width="11" height="2" x="1" y="18" style="fill:#f9f9f9;fill-opacity:1;stroke:none"/><path id="path3814" d="m -5,17 a 2,2 0 1 1 -4,0 2,2 0 1 1 4,0 z" transform="matrix(0.5,0,0,0.5,19.931103,10.5)" style="fill:#f9f9f9;fill-opacity:1;stroke:none"/><path style="fill:#f9f9f9;fill-opacity:1;stroke:none" id="path3816" d="m -5,17 a 2,2 0 1 1 -4,0 2,2 0 1 1 4,0 z" transform="matrix(0.5,0,0,0.5,23.5,10.5)"/><rect style="fill:#f9f9f9;fill-opacity:1;stroke:none" id="rect3818" width="11" height="2" x="1" y="10"/><path style="fill:#f9f9f9;fill-opacity:1;stroke:none" id="path3820" d="m -5,17 a 2,2 0 1 1 -4,0 2,2 0 1 1 4,0 z" transform="matrix(0.5,0,0,0.5,18.5,2.5)"/><path id="path3822" d="m -5,17 a 2,2 0 1 1 -4,0 2,2 0 1 1 4,0 z" transform="matrix(0.5,0,0,0.5,22.5,2.5)" style="fill:#f9f9f9;fill-opacity:1;stroke:none"/></svg>